solid CATIA STL
  facet normal  0.000000e+000  0.000000e+000  1.000000e+000
    outer loop
      vertex  9.000000e+001  5.000000e+000  1.800000e+002
      vertex -9.000000e+001 -5.000000e+000  1.800000e+002
      vertex -8.000000e+001 -5.000000e+000  1.800000e+002
    endloop
  endfacet
  facet normal  0.000000e+000  0.000000e+000  1.000000e+000
    outer loop
      vertex  9.000000e+001  5.000000e+000  1.800000e+002
      vertex -8.000000e+001 -5.000000e+000  1.800000e+002
      vertex  8.000000e+001 -5.000000e+000  1.800000e+002
    endloop
  endfacet
  facet normal  0.000000e+000  0.000000e+000  1.000000e+000
    outer loop
      vertex  9.000000e+001  5.000000e+000  1.800000e+002
      vertex  8.000000e+001 -5.000000e+000  1.800000e+002
      vertex  9.000000e+001 -5.000000e+000  1.800000e+002
    endloop
  endfacet
  facet normal  0.000000e+000  0.000000e+000  1.000000e+000
    outer loop
      vertex -9.000000e+001 -5.000000e+000  1.800000e+002
      vertex  9.000000e+001  5.000000e+000  1.800000e+002
      vertex  8.000000e+001  5.000000e+000  1.800000e+002
    endloop
  endfacet
  facet normal  0.000000e+000  0.000000e+000  1.000000e+000
    outer loop
      vertex -9.000000e+001 -5.000000e+000  1.800000e+002
      vertex  8.000000e+001  5.000000e+000  1.800000e+002
      vertex -8.000000e+001  5.000000e+000  1.800000e+002
    endloop
  endfacet
  facet normal  0.000000e+000  0.000000e+000  1.000000e+000
    outer loop
      vertex -9.000000e+001 -5.000000e+000  1.800000e+002
      vertex -8.000000e+001  5.000000e+000  1.800000e+002
      vertex -9.000000e+001  5.000000e+000  1.800000e+002
    endloop
  endfacet
  facet normal  -0.000000e+000  0.000000e+000  1.000000e+000
    outer loop
      vertex  8.000000e+001  6.000000e+001  1.800000e+002
      vertex -8.000000e+001  6.000000e+001  1.800000e+002
      vertex  8.000000e+001  4.000000e+001  1.800000e+002
    endloop
  endfacet
  facet normal  0.000000e+000  0.000000e+000  1.000000e+000
    outer loop
      vertex  8.000000e+001  4.000000e+001  1.800000e+002
      vertex -8.000000e+001  6.000000e+001  1.800000e+002
      vertex -8.000000e+001  4.000000e+001  1.800000e+002
    endloop
  endfacet
  facet normal  -0.000000e+000  0.000000e+000  1.000000e+000
    outer loop
      vertex  8.000000e+001  4.000000e+001  1.800000e+002
      vertex -8.000000e+001  4.000000e+001  1.800000e+002
      vertex  8.000000e+001  5.000000e+000  1.800000e+002
    endloop
  endfacet
  facet normal  0.000000e+000  0.000000e+000  1.000000e+000
    outer loop
      vertex  8.000000e+001  5.000000e+000  1.800000e+002
      vertex -8.000000e+001  4.000000e+001  1.800000e+002
      vertex -8.000000e+001  5.000000e+000  1.800000e+002
    endloop
  endfacet
  facet normal  -0.000000e+000  0.000000e+000  1.000000e+000
    outer loop
      vertex  8.000000e+001 -5.000000e+000  1.800000e+002
      vertex -8.000000e+001 -5.000000e+000  1.800000e+002
      vertex  8.000000e+001 -3.000000e+001  1.800000e+002
    endloop
  endfacet
  facet normal  0.000000e+000  0.000000e+000  1.000000e+000
    outer loop
      vertex  8.000000e+001 -3.000000e+001  1.800000e+002
      vertex -8.000000e+001 -5.000000e+000  1.800000e+002
      vertex -8.000000e+001 -3.000000e+001  1.800000e+002
    endloop
  endfacet
  facet normal  -0.000000e+000  0.000000e+000  1.000000e+000
    outer loop
      vertex  8.000000e+001 -3.000000e+001  1.800000e+002
      vertex -8.000000e+001 -3.000000e+001  1.800000e+002
      vertex  8.000000e+001 -6.000000e+001  1.800000e+002
    endloop
  endfacet
  facet normal  0.000000e+000  0.000000e+000  1.000000e+000
    outer loop
      vertex  8.000000e+001 -6.000000e+001  1.800000e+002
      vertex -8.000000e+001 -3.000000e+001  1.800000e+002
      vertex -8.000000e+001 -6.000000e+001  1.800000e+002
    endloop
  endfacet
  facet normal  0.000000e+000  0.000000e+000 -1.000000e+000
    outer loop
      vertex  9.000000e+001  5.000000e+000  0.000000e+000
      vertex  9.000000e+001 -5.000000e+000  0.000000e+000
      vertex  8.000000e+001 -5.000000e+000  0.000000e+000
    endloop
  endfacet
  facet normal  0.000000e+000  0.000000e+000 -1.000000e+000
    outer loop
      vertex  9.000000e+001  5.000000e+000  0.000000e+000
      vertex  8.000000e+001 -5.000000e+000  0.000000e+000
      vertex -8.000000e+001 -5.000000e+000  0.000000e+000
    endloop
  endfacet
  facet normal  0.000000e+000  0.000000e+000 -1.000000e+000
    outer loop
      vertex  9.000000e+001  5.000000e+000  0.000000e+000
      vertex -8.000000e+001 -5.000000e+000  0.000000e+000
      vertex -9.000000e+001 -5.000000e+000  0.000000e+000
    endloop
  endfacet
  facet normal  0.000000e+000  0.000000e+000 -1.000000e+000
    outer loop
      vertex -9.000000e+001 -5.000000e+000  0.000000e+000
      vertex -9.000000e+001  5.000000e+000  0.000000e+000
      vertex -8.000000e+001  5.000000e+000  0.000000e+000
    endloop
  endfacet
  facet normal  0.000000e+000  -0.000000e+000 -1.000000e+000
    outer loop
      vertex -9.000000e+001 -5.000000e+000  0.000000e+000
      vertex -8.000000e+001  5.000000e+000  0.000000e+000
      vertex  8.000000e+001  5.000000e+000  0.000000e+000
    endloop
  endfacet
  facet normal  0.000000e+000  -0.000000e+000 -1.000000e+000
    outer loop
      vertex -9.000000e+001 -5.000000e+000  0.000000e+000
      vertex  8.000000e+001  5.000000e+000  0.000000e+000
      vertex  9.000000e+001  5.000000e+000  0.000000e+000
    endloop
  endfacet
  facet normal  0.000000e+000  0.000000e+000 -1.000000e+000
    outer loop
      vertex  8.000000e+001  6.000000e+001  0.000000e+000
      vertex  8.000000e+001  4.000000e+001  0.000000e+000
      vertex -8.000000e+001  6.000000e+001  0.000000e+000
    endloop
  endfacet
  facet normal  0.000000e+000  0.000000e+000 -1.000000e+000
    outer loop
      vertex -8.000000e+001  6.000000e+001  0.000000e+000
      vertex  8.000000e+001  4.000000e+001  0.000000e+000
      vertex -8.000000e+001  4.000000e+001  0.000000e+000
    endloop
  endfacet
  facet normal  0.000000e+000  0.000000e+000 -1.000000e+000
    outer loop
      vertex  8.000000e+001  4.000000e+001  0.000000e+000
      vertex  8.000000e+001  5.000000e+000  0.000000e+000
      vertex -8.000000e+001  4.000000e+001  0.000000e+000
    endloop
  endfacet
  facet normal  0.000000e+000  0.000000e+000 -1.000000e+000
    outer loop
      vertex -8.000000e+001  4.000000e+001  0.000000e+000
      vertex  8.000000e+001  5.000000e+000  0.000000e+000
      vertex -8.000000e+001  5.000000e+000  0.000000e+000
    endloop
  endfacet
  facet normal  0.000000e+000  0.000000e+000 -1.000000e+000
    outer loop
      vertex  8.000000e+001 -5.000000e+000  0.000000e+000
      vertex  8.000000e+001 -3.000000e+001  0.000000e+000
      vertex -8.000000e+001 -5.000000e+000  0.000000e+000
    endloop
  endfacet
  facet normal  0.000000e+000  0.000000e+000 -1.000000e+000
    outer loop
      vertex -8.000000e+001 -5.000000e+000  0.000000e+000
      vertex  8.000000e+001 -3.000000e+001  0.000000e+000
      vertex -8.000000e+001 -3.000000e+001  0.000000e+000
    endloop
  endfacet
  facet normal  0.000000e+000  0.000000e+000 -1.000000e+000
    outer loop
      vertex  8.000000e+001 -3.000000e+001  0.000000e+000
      vertex  8.000000e+001 -6.000000e+001  0.000000e+000
      vertex -8.000000e+001 -3.000000e+001  0.000000e+000
    endloop
  endfacet
  facet normal  0.000000e+000  0.000000e+000 -1.000000e+000
    outer loop
      vertex -8.000000e+001 -3.000000e+001  0.000000e+000
      vertex  8.000000e+001 -6.000000e+001  0.000000e+000
      vertex -8.000000e+001 -6.000000e+001  0.000000e+000
    endloop
  endfacet
  facet normal  0.000000e+000 -1.000000e+000  0.000000e+000
    outer loop
      vertex  8.000000e+001 -5.000000e+000  1.800000e+002
      vertex  8.000000e+001 -5.000000e+000  0.000000e+000
      vertex  9.000000e+001 -5.000000e+000  1.800000e+002
    endloop
  endfacet
  facet normal  0.000000e+000 -1.000000e+000  -0.000000e+000
    outer loop
      vertex  9.000000e+001 -5.000000e+000  1.800000e+002
      vertex  8.000000e+001 -5.000000e+000  0.000000e+000
      vertex  9.000000e+001 -5.000000e+000  0.000000e+000
    endloop
  endfacet
  facet normal  0.000000e+000  1.000000e+000  -0.000000e+000
    outer loop
      vertex  9.000000e+001  5.000000e+000  1.800000e+002
      vertex  9.000000e+001  5.000000e+000  0.000000e+000
      vertex  8.000000e+001  5.000000e+000  1.800000e+002
    endloop
  endfacet
  facet normal  0.000000e+000  1.000000e+000  0.000000e+000
    outer loop
      vertex  8.000000e+001  5.000000e+000  1.800000e+002
      vertex  9.000000e+001  5.000000e+000  0.000000e+000
      vertex  8.000000e+001  5.000000e+000  0.000000e+000
    endloop
  endfacet
  facet normal  1.000000e+000  0.000000e+000  0.000000e+000
    outer loop
      vertex  8.000000e+001  6.000000e+001  0.000000e+000
      vertex  8.000000e+001  6.000000e+001  1.800000e+002
      vertex  8.000000e+001  4.000000e+001  0.000000e+000
    endloop
  endfacet
  facet normal  1.000000e+000  0.000000e+000  0.000000e+000
    outer loop
      vertex  8.000000e+001  4.000000e+001  0.000000e+000
      vertex  8.000000e+001  6.000000e+001  1.800000e+002
      vertex  8.000000e+001  4.000000e+001  1.800000e+002
    endloop
  endfacet
  facet normal  1.000000e+000  0.000000e+000  0.000000e+000
    outer loop
      vertex  8.000000e+001 -3.000000e+001  0.000000e+000
      vertex  8.000000e+001 -3.000000e+001  1.800000e+002
      vertex  8.000000e+001 -6.000000e+001  0.000000e+000
    endloop
  endfacet
  facet normal  1.000000e+000  0.000000e+000  0.000000e+000
    outer loop
      vertex  8.000000e+001 -6.000000e+001  0.000000e+000
      vertex  8.000000e+001 -3.000000e+001  1.800000e+002
      vertex  8.000000e+001 -6.000000e+001  1.800000e+002
    endloop
  endfacet
  facet normal  1.000000e+000  0.000000e+000  0.000000e+000
    outer loop
      vertex  8.000000e+001 -5.000000e+000  0.000000e+000
      vertex  8.000000e+001 -5.000000e+000  1.800000e+002
      vertex  8.000000e+001 -3.000000e+001  0.000000e+000
    endloop
  endfacet
  facet normal  1.000000e+000  0.000000e+000  0.000000e+000
    outer loop
      vertex  8.000000e+001 -3.000000e+001  0.000000e+000
      vertex  8.000000e+001 -5.000000e+000  1.800000e+002
      vertex  8.000000e+001 -3.000000e+001  1.800000e+002
    endloop
  endfacet
  facet normal  9.999999e-001  0.000000e+000  0.000000e+000
    outer loop
      vertex  8.000000e+001  4.000000e+001  0.000000e+000
      vertex  8.000000e+001  4.000000e+001  1.800000e+002
      vertex  8.000000e+001  5.000000e+000  0.000000e+000
    endloop
  endfacet
  facet normal  9.999999e-001  0.000000e+000  0.000000e+000
    outer loop
      vertex  8.000000e+001  5.000000e+000  0.000000e+000
      vertex  8.000000e+001  4.000000e+001  1.800000e+002
      vertex  8.000000e+001  5.000000e+000  1.800000e+002
    endloop
  endfacet
  facet normal  0.000000e+000 -1.000000e+000  0.000000e+000
    outer loop
      vertex -9.000000e+001 -5.000000e+000  1.800000e+002
      vertex -9.000000e+001 -5.000000e+000  0.000000e+000
      vertex -8.000000e+001 -5.000000e+000  1.800000e+002
    endloop
  endfacet
  facet normal  0.000000e+000 -1.000000e+000  -0.000000e+000
    outer loop
      vertex -8.000000e+001 -5.000000e+000  1.800000e+002
      vertex -9.000000e+001 -5.000000e+000  0.000000e+000
      vertex -8.000000e+001 -5.000000e+000  0.000000e+000
    endloop
  endfacet
  facet normal -1.000000e+000  0.000000e+000  0.000000e+000
    outer loop
      vertex -9.000000e+001  5.000000e+000  1.800000e+002
      vertex -9.000000e+001  5.000000e+000  0.000000e+000
      vertex -9.000000e+001 -5.000000e+000  1.800000e+002
    endloop
  endfacet
  facet normal -1.000000e+000  0.000000e+000  0.000000e+000
    outer loop
      vertex -9.000000e+001 -5.000000e+000  1.800000e+002
      vertex -9.000000e+001  5.000000e+000  0.000000e+000
      vertex -9.000000e+001 -5.000000e+000  0.000000e+000
    endloop
  endfacet
  facet normal  0.000000e+000  1.000000e+000  -0.000000e+000
    outer loop
      vertex -8.000000e+001  5.000000e+000  1.800000e+002
      vertex -8.000000e+001  5.000000e+000  0.000000e+000
      vertex -9.000000e+001  5.000000e+000  1.800000e+002
    endloop
  endfacet
  facet normal  0.000000e+000  1.000000e+000  0.000000e+000
    outer loop
      vertex -9.000000e+001  5.000000e+000  1.800000e+002
      vertex -8.000000e+001  5.000000e+000  0.000000e+000
      vertex -9.000000e+001  5.000000e+000  0.000000e+000
    endloop
  endfacet
  facet normal -1.000000e+000  0.000000e+000  0.000000e+000
    outer loop
      vertex -8.000000e+001 -3.000000e+001  0.000000e+000
      vertex -8.000000e+001 -3.000000e+001  1.800000e+002
      vertex -8.000000e+001 -5.000000e+000  0.000000e+000
    endloop
  endfacet
  facet normal -1.000000e+000  0.000000e+000  0.000000e+000
    outer loop
      vertex -8.000000e+001 -5.000000e+000  0.000000e+000
      vertex -8.000000e+001 -3.000000e+001  1.800000e+002
      vertex -8.000000e+001 -5.000000e+000  1.800000e+002
    endloop
  endfacet
  facet normal -9.999999e-001  0.000000e+000  0.000000e+000
    outer loop
      vertex -8.000000e+001  5.000000e+000  0.000000e+000
      vertex -8.000000e+001  5.000000e+000  1.800000e+002
      vertex -8.000000e+001  4.000000e+001  0.000000e+000
    endloop
  endfacet
  facet normal -9.999999e-001  0.000000e+000  0.000000e+000
    outer loop
      vertex -8.000000e+001  4.000000e+001  0.000000e+000
      vertex -8.000000e+001  5.000000e+000  1.800000e+002
      vertex -8.000000e+001  4.000000e+001  1.800000e+002
    endloop
  endfacet
  facet normal -1.000000e+000  0.000000e+000  0.000000e+000
    outer loop
      vertex -8.000000e+001 -6.000000e+001  0.000000e+000
      vertex -8.000000e+001 -6.000000e+001  1.800000e+002
      vertex -8.000000e+001 -3.000000e+001  0.000000e+000
    endloop
  endfacet
  facet normal -1.000000e+000  0.000000e+000  0.000000e+000
    outer loop
      vertex -8.000000e+001 -3.000000e+001  0.000000e+000
      vertex -8.000000e+001 -6.000000e+001  1.800000e+002
      vertex -8.000000e+001 -3.000000e+001  1.800000e+002
    endloop
  endfacet
  facet normal -1.000000e+000  0.000000e+000  0.000000e+000
    outer loop
      vertex -8.000000e+001  4.000000e+001  0.000000e+000
      vertex -8.000000e+001  4.000000e+001  1.800000e+002
      vertex -8.000000e+001  6.000000e+001  0.000000e+000
    endloop
  endfacet
  facet normal -1.000000e+000  0.000000e+000  0.000000e+000
    outer loop
      vertex -8.000000e+001  6.000000e+001  0.000000e+000
      vertex -8.000000e+001  4.000000e+001  1.800000e+002
      vertex -8.000000e+001  6.000000e+001  1.800000e+002
    endloop
  endfacet
  facet normal  0.000000e+000 -1.000000e+000  -0.000000e+000
    outer loop
      vertex  8.000000e+001 -6.000000e+001  0.000000e+000
      vertex  8.000000e+001 -6.000000e+001  1.800000e+002
      vertex -8.000000e+001 -6.000000e+001  0.000000e+000
    endloop
  endfacet
  facet normal  0.000000e+000 -1.000000e+000  0.000000e+000
    outer loop
      vertex -8.000000e+001 -6.000000e+001  0.000000e+000
      vertex  8.000000e+001 -6.000000e+001  1.800000e+002
      vertex -8.000000e+001 -6.000000e+001  1.800000e+002
    endloop
  endfacet
  facet normal  0.000000e+000  1.000000e+000  0.000000e+000
    outer loop
      vertex -8.000000e+001  6.000000e+001  0.000000e+000
      vertex -8.000000e+001  6.000000e+001  1.800000e+002
      vertex  8.000000e+001  6.000000e+001  0.000000e+000
    endloop
  endfacet
  facet normal  0.000000e+000  1.000000e+000  -0.000000e+000
    outer loop
      vertex  8.000000e+001  6.000000e+001  0.000000e+000
      vertex -8.000000e+001  6.000000e+001  1.800000e+002
      vertex  8.000000e+001  6.000000e+001  1.800000e+002
    endloop
  endfacet
  facet normal  1.000000e+000  -0.000000e+000  0.000000e+000
    outer loop
      vertex  9.000000e+001  5.000000e+000  1.800000e+002
      vertex  9.000000e+001 -5.000000e+000  1.800000e+002
      vertex  9.000000e+001  5.000000e+000  0.000000e+000
    endloop
  endfacet
  facet normal  1.000000e+000  0.000000e+000  0.000000e+000
    outer loop
      vertex  9.000000e+001  5.000000e+000  0.000000e+000
      vertex  9.000000e+001 -5.000000e+000  1.800000e+002
      vertex  9.000000e+001 -5.000000e+000  0.000000e+000
    endloop
  endfacet
endsolid CATIA STL
